<svg class="svg-canvas" viewBox="0 0 800 600" width="1600" height="1200" preserveAspectRatio="none" version="1.1" xmlns="http://www.w3.org/2000/svg" xmlns:xlink="http://www.w3.org/1999/xlink">
        <!--滤镜-->
        <defs></defs>

        <!-- 背景 -->
        <g id="background">
            <rect x="0" y="0" fill="#000000" width="800" height="600"></rect>
            
          </g>

        <!--元素-->
        
                <g id="shape_kdMZGrN3Yc" ref="shape_kdMZGrN3Yc" key="shape_kdMZGrN3Yc" mask="">
                  <g transform="translate(-62.57894736841999,-45.5) rotate(0,495,345.5) scale(1,1)" style="opacity: 1;mix-blend-mode: undefined;" filter="">
                    <!--普通元素-->
                    <svg xmlns="http://www.w3.org/2000/svg" version="1.1" xmlns:xlink="http://www.w3.org/1999/xlink" width="990" height="691" viewBox="0 0 990 691" data-ligature="true" data-parent="shape_kdMZGrN3Yc"><g data-role="text" data-width="411.936" data-height="115" transform="translate(288, 288)"><path d="M72.10-67.20L83.04-67.20L47.71 0L36.77 0L1.44-67.20L12.38-67.20L42.24-10.37L72.10-67.20Z" transform="translate(0 91) " fill="rgb(255, 255, 255)" stroke="rgb(255, 255, 255)" stroke-width="0.16" data-glyph-w="84.48" data-glyph-h="115.776" data-glyph-ascender="91.488" data-glyph-descender="-24.288" data-kerning="0"></path><path d="M77.57-9.60L77.57 0L8.06 0L8.06-67.20L77.57-67.20L77.57-57.60L17.66-57.60L17.66-9.60L77.57-9.60ZM69.41-38.40L69.41-28.80L22.46-28.80L22.46-38.40L69.41-38.40Z" transform="translate(84.48 91) " fill="rgb(255, 255, 255)" stroke="rgb(255, 255, 255)" stroke-width="0.16" data-glyph-w="81.408" data-glyph-h="115.776" data-glyph-ascender="91.488" data-glyph-descender="-24.288" data-kerning="0"></path><path d="M13.06-67.20L78.14 0L65.57 0L39.26-27.07L13.06 0L0.48 0L33.02-33.60L0.48-67.20L13.06-67.20ZM65.57-67.20L78.14-67.20L48.86-37.06L42.62-43.49L65.57-67.20Z" transform="translate(165.888 91) " fill="rgb(255, 255, 255)" stroke="rgb(255, 255, 255)" stroke-width="0.16" data-glyph-w="78.624" data-glyph-h="115.776" data-glyph-ascender="91.488" data-glyph-descender="-24.288" data-kerning="0"></path><path d="M78.43-9.60L78.43 0L35.14 0Q28.13 0 22.46-2.59Q16.80-5.18 12.72-9.79Q8.64-14.40 6.43-20.50Q4.22-26.59 4.22-33.60L4.22-33.60Q4.22-40.51 6.43-46.61Q8.64-52.70 12.72-57.36Q16.80-62.02 22.46-64.61Q28.13-67.20 35.14-67.20L35.14-67.20L78.43-67.20L78.43-57.60L35.14-57.60Q28.51-57.60 23.76-54.38Q19.01-51.17 16.42-45.70Q13.82-40.22 13.82-33.60L13.82-33.60Q13.82-26.98 16.42-21.55Q19.01-16.13 23.76-12.86Q28.51-9.60 35.14-9.60L35.14-9.60L78.43-9.60Z" transform="translate(244.512 91) " fill="rgb(255, 255, 255)" stroke="rgb(255, 255, 255)" stroke-width="0.16" data-glyph-w="81.984" data-glyph-h="115.776" data-glyph-ascender="91.488" data-glyph-descender="-24.288" data-kerning="0"></path><path d="M82.27-19.20L82.27-19.20Q82.27-13.92 79.68-9.55Q77.09-5.18 72.77-2.59Q68.45 0 63.07 0L63.07 0L4.70 0L4.70-9.60L63.07-9.60Q67.10-9.60 69.89-12.43Q72.67-15.26 72.67-19.20L72.67-19.20Q72.67-23.14 69.89-25.97Q67.10-28.80 63.07-28.80L63.07-28.80L23.90-28.80Q18.62-28.80 14.26-31.39Q9.89-33.98 7.30-38.35Q4.70-42.72 4.70-48L4.70-48Q4.70-53.28 7.30-57.65Q9.89-62.02 14.26-64.61Q18.62-67.20 23.90-67.20L23.90-67.20L77.47-67.20L77.47-57.60L23.90-57.60Q19.97-57.60 17.14-54.77Q14.30-51.94 14.30-48L14.30-48Q14.30-44.06 17.14-41.23Q19.97-38.40 23.90-38.40L23.90-38.40L63.07-38.40Q68.45-38.40 72.77-35.81Q77.09-33.22 79.68-28.85Q82.27-24.48 82.27-19.20Z" transform="translate(326.496 91) " fill="rgb(255, 255, 255)" stroke="rgb(255, 255, 255)" stroke-width="0.16" data-glyph-w="85.44" data-glyph-h="115.776" data-glyph-ascender="91.488" data-glyph-descender="-24.288" data-kerning="0"></path></g></svg>
                  </g>
                </g>
                <g id="shape_o99KmmDM8t" ref="shape_o99KmmDM8t" key="shape_o99KmmDM8t" mask="">
                  <g transform="translate(131.03996928206,199.91518056078) rotate(90,129.01042245361,100.09524189283) scale(1,1)" style="opacity: 1;mix-blend-mode: undefined;" filter="">
                    <!--普通元素-->
                    <svg version="1.1" id="图层_1" xmlns="http://www.w3.org/2000/svg" xmlns:xlink="http://www.w3.org/1999/xlink" x="0px" y="0px" width="258" height="200" viewBox="1.399999976158142 1.399999976158142 197.20001220703125 153" style="enable-background:new 0 0 200 156.1;" xml:space="preserve" class="style-removed" preserveAspectRatio="none" data-parent="shape_o99KmmDM8t">

<path d="M182.3,1.4c8.2,14.1,13,30.5,13,48c0,52.6-42.6,95.2-95.2,95.2c-52.6,0-95.2-42.6-95.2-95.2
	c0-17.5,4.7-33.9,13-48C7.4,17,1.4,35.7,1.4,55.8c0,54.5,44.2,98.6,98.6,98.6c54.5,0,98.6-44.2,98.6-98.6
	C198.6,35.7,192.6,17,182.3,1.4z" fill="#0001e0" stroke-width="0"></path>
</svg>
                  </g>
                </g>
      </svg>