<svg class="svg-canvas" viewBox="0 0 800 600" width="1600" height="1200" preserveAspectRatio="none" version="1.1" xmlns="http://www.w3.org/2000/svg" xmlns:xlink="http://www.w3.org/1999/xlink">
        <!--滤镜-->
        <defs></defs>

        <!-- 背景 -->
        <g id="background">
            
            
          </g>

        <!--元素-->
        
                <g id="shape_cbmGQc5ziN" ref="shape_cbmGQc5ziN" key="shape_cbmGQc5ziN" mask="">
                  <g transform="translate(-207.53727329187848,-210.05650533260783) rotate(0,481.67445966225955,492.17445966225955) scale(1,1)" style="opacity: 1;mix-blend-mode: undefined;" filter="">
                    <!--普通元素-->
                    <svg xmlns="http://www.w3.org/2000/svg" version="1.1" xmlns:xlink="http://www.w3.org/1999/xlink" width="963.3489193245191" height="984.3489193245191" viewBox="0 0 963.3489193245191 984.3489193245191" data-ligature="true" data-parent="shape_cbmGQc5ziN"><g data-role="text" data-width="164.090703125" data-height="164" transform="translate(399.62910809975955, 410.17445966225955)"><path d="M136.72-109.35L136.72-82.05L27.37-82.05L27.37-54.67L109.35-54.67L109.35-27.37L27.37-27.37L27.37 0L136.72 0L136.72 27.37L0 27.37L0-109.35L136.72-109.35Z" transform="translate(0 131) " fill="#ffffff" stroke="#ffffff" stroke-width="0.228" data-glyph-w="164.090703125" data-glyph-h="155.67921875" data-glyph-ascender="127.7076953125" data-glyph-descender="-27.9715234375" data-kerning="0"></path></g></svg>
                  </g>
                </g>
                <g id="shape_Ia7tqHYlRd" ref="shape_Ia7tqHYlRd" key="shape_Ia7tqHYlRd" mask="">
                  <g transform="translate(-386.9515337509098,-210.05650533260783) rotate(0,510.67445966225955,492.17445966225955) scale(1,1)" style="opacity: 1;mix-blend-mode: undefined;" filter="">
                    <!--普通元素-->
                    <svg xmlns="http://www.w3.org/2000/svg" version="1.1" xmlns:xlink="http://www.w3.org/1999/xlink" width="1021.3489193245191" height="984.3489193245191" viewBox="0 0 1021.3489193245191 984.3489193245191" data-ligature="true" data-parent="shape_Ia7tqHYlRd"><g data-role="text" data-width="164.090703125" data-height="164" transform="translate(428.62910809975955, 410.17445966225955)"><path d="M82.05 27.37L54.67 27.37L54.67 0L82.05 0L82.05 27.37ZM0-27.37L0-109.35L27.37-109.35L27.37-27.37L0-27.37ZM109.35-27.37L109.35-109.35L136.72-109.35L136.72-27.37L109.35-27.37ZM109.35 0L82.05 0L82.05-27.37L109.35-27.37L109.35 0ZM27.37 0L27.37-27.37L54.67-27.37L54.67 0L27.37 0Z" transform="translate(0 131) " fill="#921eff" stroke="#921eff" stroke-width="0.228" data-glyph-w="164.090703125" data-glyph-h="155.67921875" data-glyph-ascender="127.7076953125" data-glyph-descender="-27.9715234375" data-kerning="0"></path></g></svg>
                  </g>
                </g>
                <g id="shape_kYBxUWOkFf" ref="shape_kYBxUWOkFf" key="shape_kYBxUWOkFf" mask="">
                  <g transform="translate(64.297525757931,-210.05650533260783) rotate(0,510.67445966225955,492.17445966225955) scale(1,1)" style="opacity: 1;mix-blend-mode: undefined;" filter="">
                    <!--普通元素-->
                    <svg xmlns="http://www.w3.org/2000/svg" version="1.1" xmlns:xlink="http://www.w3.org/1999/xlink" width="1021.3489193245191" height="984.3489193245191" viewBox="0 0 1021.3489193245191 984.3489193245191" data-ligature="true" data-parent="shape_kYBxUWOkFf"><g data-role="text" data-width="164.090703125" data-height="164" transform="translate(428.62910809975955, 410.17445966225955)"><path d="M136.72 0L136.72 27.37L27.37 27.37L27.37 0L136.72 0ZM0 0L0-82.05L27.37-82.05L27.37 0L0 0ZM27.37-109.35L136.72-109.35L136.72-82.05L27.37-82.05L27.37-109.35Z" transform="translate(0 131) " fill="#FFFFFF" stroke="#FFFFFF" stroke-width="0.228" data-glyph-w="164.090703125" data-glyph-h="155.67921875" data-glyph-ascender="127.7076953125" data-glyph-descender="-27.9715234375" data-kerning="0"></path></g></svg>
                  </g>
                </g>
                <g id="shape_TAylWMbHzx" ref="shape_TAylWMbHzx" key="shape_TAylWMbHzx" mask="">
                  <g transform="translate(-57.16064669878983,-210.05650533260783) rotate(0,481.67445966225955,492.17445966225955) scale(1,1)" style="opacity: 1;mix-blend-mode: undefined;" filter="">
                    <!--普通元素-->
                    <svg xmlns="http://www.w3.org/2000/svg" version="1.1" xmlns:xlink="http://www.w3.org/1999/xlink" width="963.3489193245191" height="984.3489193245191" viewBox="0 0 963.3489193245191 984.3489193245191" data-ligature="true" data-parent="shape_TAylWMbHzx"><g data-role="text" data-width="164.090703125" data-height="164" transform="translate(399.62910809975955, 410.17445966225955)"><path d="M27.37 27.37L0 27.37L0 0L27.37 0L27.37 27.37ZM0-82.05L0-109.35L27.37-109.35L27.37-82.05L0-82.05ZM109.35-27.37L109.35 0L82.05 0L82.05-27.37L109.35-27.37ZM136.72 0L136.72 27.37L109.35 27.37L109.35 0L136.72 0ZM54.67 0L27.37 0L27.37-27.37L54.67-27.37L54.67 0ZM82.05-82.05L109.35-82.05L109.35-54.67L82.05-54.67L82.05-82.05ZM27.37-54.67L27.37-82.05L54.67-82.05L54.67-54.67L27.37-54.67ZM109.35-109.35L136.72-109.35L136.72-82.05L109.35-82.05L109.35-109.35ZM54.67-27.37L54.67-54.67L82.05-54.67L82.05-27.37L54.67-27.37Z" transform="translate(0 131) " fill="#ffffff" stroke="#ffffff" stroke-width="0.228" data-glyph-w="164.090703125" data-glyph-h="155.67921875" data-glyph-ascender="127.7076953125" data-glyph-descender="-27.9715234375" data-kerning="0"></path></g></svg>
                  </g>
                </g>
                <g id="shape_7ESzdVk3e9" ref="shape_7ESzdVk3e9" key="shape_7ESzdVk3e9" mask="">
                  <g transform="translate(239.2572400050251,-210.05650533260783) rotate(0,485.67445966225955,492.17445966225955) scale(1,1)" style="opacity: 1;mix-blend-mode: undefined;" filter="">
                    <!--普通元素-->
                    <svg xmlns="http://www.w3.org/2000/svg" version="1.1" xmlns:xlink="http://www.w3.org/1999/xlink" width="971.3489193245191" height="984.3489193245191" viewBox="0 0 971.3489193245191 984.3489193245191" data-ligature="true" data-parent="shape_7ESzdVk3e9"><g data-role="text" data-width="164.090703125" data-height="164" transform="translate(403.62910809975955, 410.17445966225955)"><path d="M136.72-27.37L136.72 0L109.35 0L109.35-27.37L136.72-27.37ZM109.35 27.37L0 27.37L0 0L109.35 0L109.35 27.37ZM109.35-54.67L109.35-27.37L27.37-27.37L27.37-54.67L109.35-54.67ZM27.37-109.35L136.72-109.35L136.72-82.05L27.37-82.05L27.37-109.35ZM0-54.67L0-82.05L27.37-82.05L27.37-54.67L0-54.67Z" transform="translate(0 131) " fill="#FFFFFF" stroke="#FFFFFF" stroke-width="0.228" data-glyph-w="164.090703125" data-glyph-h="155.67921875" data-glyph-ascender="127.7076953125" data-glyph-descender="-27.9715234375" data-kerning="0"></path></g></svg>
                  </g>
                </g>
                <g id="shape_YH6mERxYtZ" ref="shape_YH6mERxYtZ" key="shape_YH6mERxYtZ" mask="">
                  <g transform="translate(-0.43169966728467557,208.49834625038332) rotate(0,13.672481988741982,13.672481988741973) scale(1,1)" style="opacity: 1;mix-blend-mode: undefined;" filter="">
                    <!--普通元素-->
                    <svg id="图层_1" data-name="图层 1" xmlns="http://www.w3.org/2000/svg" viewBox="0 0 27.344963977483964 27.344963977483946" width="27.344963977483964" height="27.344963977483946" class="style-removed" preserveAspectRatio="none" data-parent="shape_YH6mERxYtZ"><title>未标题-3</title><rect width="27.344963977483964" height="27.344963977483946" class="radius-elem" x="0" y="0" fill="#921EFF" rx="0" ry="0" stroke-width="0"></rect></svg>
                  </g>
                </g>
                <g id="shape_rBL4d3Ao4v" ref="shape_rBL4d3Ao4v" key="shape_rBL4d3Ao4v" mask="">
                  <g transform="translate(13.240782321456976,372.5370816928643) rotate(0,27.344963977483964,13.672481988741973) scale(1,1)" style="opacity: 1;mix-blend-mode: undefined;" filter="">
                    <!--普通元素-->
                    <svg id="图层_1" data-name="图层 1" xmlns="http://www.w3.org/2000/svg" viewBox="0 0 54.68992795496793 27.344963977483946" width="54.68992795496793" height="27.344963977483946" class="style-removed" preserveAspectRatio="none" data-parent="shape_rBL4d3Ao4v"><title>未标题-3</title><rect width="54.68992795496793" height="27.344963977483946" class="radius-elem" x="0" y="0" fill="#ffffff" rx="0" ry="0" stroke-width="0"></rect></svg>
                  </g>
                </g>
      </svg>