<svg class="svg-canvas" viewBox="0 0 800 444" width="1600" height="888" preserveAspectRatio="none" version="1.1" xmlns="http://www.w3.org/2000/svg" xmlns:xlink="http://www.w3.org/1999/xlink">
        <!--滤镜-->
        <defs></defs>

        <!-- 背景 -->
        <g id="background">
            
            
          </g>

        <!--元素-->
        
                <g id="shape_kdMZGrN3Yc" ref="shape_kdMZGrN3Yc" key="shape_kdMZGrN3Yc" mask="">
                  <g transform="translate(-371.1146579643096,-353.14930039417163) rotate(0,825.547535359043,575.047535359043) scale(1,1)" style="opacity: 1;mix-blend-mode: undefined;" filter="">
                    <!--普通元素-->
                    <svg xmlns="http://www.w3.org/2000/svg" version="1.1" xmlns:xlink="http://www.w3.org/1999/xlink" width="1651.095070718086" height="1150.095070718086" viewBox="0 0 1651.095070718086 1150.095070718086" data-ligature="true" data-parent="shape_kdMZGrN3Yc"><g data-role="text" data-width="685.91635" data-height="191" transform="translate(479.54753535904297, 479.54753535904297)"><path d="M120.05-111.89L138.27-111.89L79.45 0L61.22 0L2.40-111.89L20.62-111.89L70.33-17.26L120.05-111.89Z" transform="translate(0 151) " fill="rgb(255, 255, 255)" stroke="rgb(255, 255, 255)" stroke-width="0.266" data-glyph-w="140.668" data-glyph-h="192.7791" data-glyph-ascender="152.33705" data-glyph-descender="-40.442049999999995" data-kerning="0"></path><path d="M129.16-15.98L129.16 0L13.43 0L13.43-111.89L129.16-111.89L129.16-95.91L29.41-95.91L29.41-15.98L129.16-15.98ZM115.57-63.94L115.57-47.95L37.40-47.95L37.40-63.94L115.57-63.94Z" transform="translate(140.668 151) " fill="rgb(255, 255, 255)" stroke="rgb(255, 255, 255)" stroke-width="0.266" data-glyph-w="135.5528" data-glyph-h="192.7791" data-glyph-ascender="152.33705" data-glyph-descender="-40.442049999999995" data-kerning="0"></path><path d="M21.74-111.89L130.12 0L109.18 0L65.38-45.08L21.74 0L0.80 0L54.99-55.95L0.80-111.89L21.74-111.89ZM109.18-111.89L130.12-111.89L81.36-61.70L70.97-72.41L109.18-111.89Z" transform="translate(276.2208 151) " fill="rgb(255, 255, 255)" stroke="rgb(255, 255, 255)" stroke-width="0.266" data-glyph-w="130.91715" data-glyph-h="192.7791" data-glyph-ascender="152.33705" data-glyph-descender="-40.442049999999995" data-kerning="0"></path><path d="M130.60-15.98L130.60 0L58.51 0Q46.84 0 37.40-4.32Q27.97-8.63 21.18-16.30Q14.39-23.98 10.71-34.13Q7.03-44.28 7.03-55.95L7.03-55.95Q7.03-67.46 10.71-77.61Q14.39-87.76 21.18-95.51Q27.97-103.26 37.40-107.58Q46.84-111.89 58.51-111.89L58.51-111.89L130.60-111.89L130.60-95.91L58.51-95.91Q47.48-95.91 39.56-90.56Q31.65-85.20 27.33-76.09Q23.02-66.98 23.02-55.95L23.02-55.95Q23.02-44.92 27.33-35.89Q31.65-26.85 39.56-21.42Q47.48-15.98 58.51-15.98L58.51-15.98L130.60-15.98Z" transform="translate(407.13795 151) " fill="rgb(255, 255, 255)" stroke="rgb(255, 255, 255)" stroke-width="0.266" data-glyph-w="136.5119" data-glyph-h="192.7791" data-glyph-ascender="152.33705" data-glyph-descender="-40.442049999999995" data-kerning="0"></path><path d="M136.99-31.97L136.99-31.97Q136.99-23.18 132.68-15.91Q128.36-8.63 121.17-4.32Q113.97 0 105.02 0L105.02 0L7.83 0L7.83-15.98L105.02-15.98Q111.74-15.98 116.37-20.70Q121.01-25.42 121.01-31.97L121.01-31.97Q121.01-38.52 116.37-43.24Q111.74-47.95 105.02-47.95L105.02-47.95L39.80-47.95Q31.01-47.95 23.74-52.27Q16.46-56.59 12.15-63.86Q7.83-71.13 7.83-79.92L7.83-79.92Q7.83-88.72 12.15-95.99Q16.46-103.26 23.74-107.58Q31.01-111.89 39.80-111.89L39.80-111.89L129.00-111.89L129.00-95.91L39.80-95.91Q33.25-95.91 28.53-91.19Q23.82-86.48 23.82-79.92L23.82-79.92Q23.82-73.37 28.53-68.66Q33.25-63.94 39.80-63.94L39.80-63.94L105.02-63.94Q113.97-63.94 121.17-59.62Q128.36-55.31 132.68-48.03Q136.99-40.76 136.99-31.97Z" transform="translate(543.64985 151) " fill="rgb(255, 255, 255)" stroke="rgb(255, 255, 255)" stroke-width="0.266" data-glyph-w="142.26649999999998" data-glyph-h="192.7791" data-glyph-ascender="152.33705" data-glyph-descender="-40.442049999999995" data-kerning="0"></path></g></svg>
                  </g>
                </g>
                <g id="shape_o99KmmDM8t" ref="shape_o99KmmDM8t" key="shape_o99KmmDM8t" mask="">
                  <g transform="translate(-48.72065005241595,55.490439111440395) rotate(90,214.79733354624216,166.50956088855963) scale(1,1)" style="opacity: 1;mix-blend-mode: undefined;" filter="">
                    <!--普通元素-->
                    <svg version="1.1" id="图层_1" xmlns="http://www.w3.org/2000/svg" xmlns:xlink="http://www.w3.org/1999/xlink" x="0px" y="0px" width="429.5946670924843" height="333.01912177711927" viewBox="1.399999976158142 1.399999976158142 197.20001220703125 153" style="enable-background:new 0 0 200 156.1;" xml:space="preserve" class="style-removed" preserveAspectRatio="none" data-parent="shape_o99KmmDM8t">

<path d="M182.3,1.4c8.2,14.1,13,30.5,13,48c0,52.6-42.6,95.2-95.2,95.2c-52.6,0-95.2-42.6-95.2-95.2
	c0-17.5,4.7-33.9,13-48C7.4,17,1.4,35.7,1.4,55.8c0,54.5,44.2,98.6,98.6,98.6c54.5,0,98.6-44.2,98.6-98.6
	C198.6,35.7,192.6,17,182.3,1.4z" fill="#0001e0" stroke-width="0"></path>
</svg>
                  </g>
                </g>
      </svg>