<svg class="svg-canvas" viewBox="0 0 800 600" width="1600" height="1200" preserveAspectRatio="none" version="1.1" xmlns="http://www.w3.org/2000/svg" xmlns:xlink="http://www.w3.org/1999/xlink">
        <!--滤镜-->
        <defs></defs>

        <!-- 背景 -->
        <g id="background">
            
            
          </g>

        <!--元素-->
        
                <g id="shape_kdMZGrN3Yc" ref="shape_kdMZGrN3Yc" key="shape_kdMZGrN3Yc" mask="">
                  <g transform="translate(-366.61428838723396,-275.7484412260651) rotate(0,826.0470865348354,576.0470865348354) scale(1,1)" style="opacity: 1;mix-blend-mode: undefined;" filter="">
                    <!--普通元素-->
                    <svg xmlns="http://www.w3.org/2000/svg" version="1.1" xmlns:xlink="http://www.w3.org/1999/xlink" width="1652.094173069671" height="1152.094173069671" viewBox="0 0 1652.094173069671 1152.094173069671" data-ligature="true" data-parent="shape_kdMZGrN3Yc"><g data-role="text" data-width="686.6458200000001" data-height="192" transform="translate(480.0470865348354, 480.0470865348354)"><path d="M120.18-112.01L138.42-112.01L79.53 0L61.29 0L2.40-112.01L20.64-112.01L70.41-17.28L120.18-112.01Z" transform="translate(0 152) " fill="rgb(255, 255, 255)" stroke="rgb(255, 255, 255)" stroke-width="0.267" data-glyph-w="140.81760000000003" data-glyph-h="192.98412000000002" data-glyph-ascender="152.49906000000001" data-glyph-descender="-40.485060000000004" data-kerning="0"></path><path d="M129.30-16.00L129.30 0L13.44 0L13.44-112.01L129.30-112.01L129.30-96.01L29.44-96.01L29.44-16.00L129.30-16.00ZM115.69-64.01L115.69-48.01L37.44-48.01L37.44-64.01L115.69-64.01Z" transform="translate(140.81760000000003 152) " fill="rgb(255, 255, 255)" stroke="rgb(255, 255, 255)" stroke-width="0.267" data-glyph-w="135.69696000000002" data-glyph-h="192.98412000000002" data-glyph-ascender="152.49906000000001" data-glyph-descender="-40.485060000000004" data-kerning="0"></path><path d="M21.76-112.01L130.26 0L109.29 0L65.45-45.13L21.76 0L0.80 0L55.05-56.01L0.80-112.01L21.76-112.01ZM109.29-112.01L130.26-112.01L81.45-61.77L71.05-72.49L109.29-112.01Z" transform="translate(276.5145600000001 152) " fill="rgb(255, 255, 255)" stroke="rgb(255, 255, 255)" stroke-width="0.267" data-glyph-w="131.05638000000002" data-glyph-h="192.98412000000002" data-glyph-ascender="152.49906000000001" data-glyph-descender="-40.485060000000004" data-kerning="0"></path><path d="M130.74-16.00L130.74 0L58.57 0Q46.89 0 37.44-4.32Q28.00-8.64 21.20-16.32Q14.40-24.00 10.72-34.16Q7.04-44.33 7.04-56.01L7.04-56.01Q7.04-67.53 10.72-77.69Q14.40-87.85 21.20-95.61Q28.00-103.37 37.44-107.69Q46.89-112.01 58.57-112.01L58.57-112.01L130.74-112.01L130.74-96.01L58.57-96.01Q47.53-96.01 39.60-90.65Q31.68-85.29 27.36-76.17Q23.04-67.05 23.04-56.01L23.04-56.01Q23.04-44.97 27.36-35.92Q31.68-26.88 39.60-21.44Q47.53-16.00 58.57-16.00L58.57-16.00L130.74-16.00Z" transform="translate(407.57094000000006 152) " fill="rgb(255, 255, 255)" stroke="rgb(255, 255, 255)" stroke-width="0.267" data-glyph-w="136.65708" data-glyph-h="192.98412000000002" data-glyph-ascender="152.49906000000001" data-glyph-descender="-40.485060000000004" data-kerning="0"></path><path d="M137.14-32.00L137.14-32.00Q137.14-23.20 132.82-15.92Q128.50-8.64 121.30-4.32Q114.09 0 105.13 0L105.13 0L7.84 0L7.84-16.00L105.13-16.00Q111.85-16.00 116.49-20.72Q121.14-25.44 121.14-32.00L121.14-32.00Q121.14-38.56 116.49-43.29Q111.85-48.01 105.13-48.01L105.13-48.01L39.84-48.01Q31.04-48.01 23.76-52.33Q16.48-56.65 12.16-63.93Q7.84-71.21 7.84-80.01L7.84-80.01Q7.84-88.81 12.16-96.09Q16.48-103.37 23.76-107.69Q31.04-112.01 39.84-112.01L39.84-112.01L129.14-112.01L129.14-96.01L39.84-96.01Q33.28-96.01 28.56-91.29Q23.84-86.57 23.84-80.01L23.84-80.01Q23.84-73.45 28.56-68.73Q33.28-64.01 39.84-64.01L39.84-64.01L105.13-64.01Q114.09-64.01 121.30-59.69Q128.50-55.37 132.82-48.09Q137.14-40.81 137.14-32.00Z" transform="translate(544.22802 152) " fill="rgb(255, 255, 255)" stroke="rgb(255, 255, 255)" stroke-width="0.267" data-glyph-w="142.41780000000003" data-glyph-h="192.98412000000002" data-glyph-ascender="152.49906000000001" data-glyph-descender="-40.485060000000004" data-kerning="0"></path></g></svg>
                  </g>
                </g>
                <g id="shape_o99KmmDM8t" ref="shape_o99KmmDM8t" key="shape_o99KmmDM8t" mask="">
                  <g transform="translate(-43.88443826190753,133.31698384207095) rotate(90,215.02109084372836,166.68301615792907) scale(1,1)" style="opacity: 1;mix-blend-mode: undefined;" filter="">
                    <!--普通元素-->
                    <svg version="1.1" id="图层_1" xmlns="http://www.w3.org/2000/svg" xmlns:xlink="http://www.w3.org/1999/xlink" x="0px" y="0px" width="430.0421816874567" height="333.36603231585815" viewBox="1.399999976158142 1.399999976158142 197.20001220703125 153" style="enable-background:new 0 0 200 156.1;" xml:space="preserve" class="style-removed" preserveAspectRatio="none" data-parent="shape_o99KmmDM8t">

<path d="M182.3,1.4c8.2,14.1,13,30.5,13,48c0,52.6-42.6,95.2-95.2,95.2c-52.6,0-95.2-42.6-95.2-95.2
	c0-17.5,4.7-33.9,13-48C7.4,17,1.4,35.7,1.4,55.8c0,54.5,44.2,98.6,98.6,98.6c54.5,0,98.6-44.2,98.6-98.6
	C198.6,35.7,192.6,17,182.3,1.4z" fill="#0001e0" stroke-width="0"></path>
</svg>
                  </g>
                </g>
      </svg>